<?xml version="1.0" encoding="UTF-8" standalone="no"?>
<!DOCTYPE svg PUBLIC "-//W3C//DTD SVG 1.1//EN" "http://www.w3.org/Graphics/SVG/1.1/DTD/svg11.dtd">
<svg width="100%" height="100%" viewBox="0 0 382 161" version="1.1" xmlns="http://www.w3.org/2000/svg" xmlns:xlink="http://www.w3.org/1999/xlink" xml:space="preserve" style="fill-rule:evenodd;clip-rule:evenodd;stroke-linejoin:round;stroke-miterlimit:1.41421;">
    <g transform="matrix(1,0,0,1,-609,-711)">
        <g>
            <path d="M796.847,781.525L796.715,780.671L796.321,779.685L795.993,778.897L795.008,777.321L794.613,776.861L794.219,776.467L793.891,776.007L793.497,775.548L793.169,775.088L792.775,774.628L792.38,774.234L791.921,773.84L791.527,773.446L790.738,772.526L790.409,772.132L789.95,771.606L789.621,771.344L789.161,770.884L787.979,769.504L787.52,768.913L786.14,766.942L785.746,766.22L785.483,765.629L785.286,765.104L785.089,764.513L784.695,763.462L784.563,762.87L784.498,762.344L784.498,761.753L784.432,761.096L784.432,760.242L784.498,759.454L784.563,758.797L784.628,758.206L784.891,757.023L785.153,756.431L785.35,755.84L785.613,755.315L785.941,754.724L786.27,754.264L786.664,753.738L787.058,753.278L787.912,752.425L788.372,752.03L788.897,751.702L789.948,751.176L790.539,750.914L792.115,750.323L792.837,750.125L794.02,749.863L795.333,749.863L796.384,749.798L797.041,749.798L797.895,749.863L798.617,749.928L799.931,750.191L800.522,750.388L801.047,750.651L801.638,750.913L803.018,751.767L803.544,752.161L804.004,752.555L804.332,752.95L804.726,753.409L805.12,753.935L805.58,754.592L805.974,755.314L806.171,755.906L806.303,756.497L806.368,757.154L806.5,757.942L806.5,759.979L806.435,760.57L806.303,761.162L806.04,761.687L805.581,762.015L805.055,762.278L804.464,762.343L803.938,762.409L803.347,762.277L802.821,761.949L802.362,761.292L802.164,760.57L802.099,759.913L802.099,758.665L802.034,758.074L801.836,757.549L801.639,756.958L801.377,756.432L801.048,755.907L800.654,755.447L800.194,755.053L799.734,754.725L799.209,754.396L798.683,754.199L798.092,754.002L797.567,753.936L795.728,753.739L795.136,753.739L794.479,753.805L793.297,754.199L792.246,754.856L791.786,755.25L791.326,755.709L790.998,756.169L790.67,756.76L790.473,757.286L790.21,757.878L790.013,758.469L789.881,759.126L789.816,759.717L789.816,760.965L789.881,761.557L790.013,762.148L790.145,762.673L790.407,763.265L790.604,763.79L790.933,764.382L791.327,765.17L791.722,765.892L792.378,766.943L793.955,768.783L794.283,769.243L795.597,770.556L797.173,772.396L798.027,773.249L798.355,773.709L799.077,774.628L799.471,775.088L799.865,775.614L800.193,776.074L800.456,776.599L800.784,777.125L801.31,778.176L801.572,778.767L801.834,779.293L802.032,779.884L802.229,780.41L802.361,781.002L802.426,781.593L802.558,782.185L802.623,782.776L802.558,783.433L802.426,784.615L802.163,785.798L802.098,786.39L802.033,786.915L801.901,787.507L801.704,788.098L801.441,788.623L801.179,789.215L800.39,790.66L800,791.246L799.606,791.706L799.146,792.165L798.817,792.428L798.292,792.888L797.963,793.216L796.912,794.005L795.861,794.53L795.336,794.859L794.68,795.121L794.154,795.318L793.694,795.45L793.103,795.647L792.446,795.779L791.855,795.845L791.395,795.976L789.425,796.173L787.782,796.173L786.009,795.976L785.55,795.976L784.893,795.845L783.973,795.647L782.594,795.188L782.068,794.925L781.608,794.596L780.951,794.202L779.9,793.414L778.849,792.363L778.455,791.903L777.798,790.984L777.47,790.458L777.142,789.998L776.747,788.815L776.615,788.224L776.418,787.436L776.221,786.582L776.09,785.99L776.024,785.399L776.024,784.151L776.09,783.626L776.09,782.443L776.155,781.852L776.549,780.079L776.746,779.29L776.943,778.436L777.141,777.845L777.666,777.253L778.586,776.859L779.571,776.859L780.425,777.056L780.95,777.45L781.279,778.042L781.279,778.83L781.214,779.487L781.082,780.079L780.885,780.67L780.819,781.261L780.688,781.853L780.688,783.692L780.885,785.465L781.017,786.057L781.608,787.83L781.937,788.356L782.331,788.947L782.528,789.275L782.988,789.801L783.382,790.195L783.842,790.59L784.368,790.918L784.827,791.247L785.352,791.575L785.944,791.838L786.47,792.035L787.126,792.166L787.718,792.232L788.506,792.232L790.346,792.1L791.134,792.035L791.726,791.838L792.777,791.443L793.303,791.181L793.829,790.852L794.355,790.261L794.946,789.669L795.34,789.143L795.735,788.487L796.129,787.764L796.391,787.108L796.654,786.319L796.916,785.334L797.048,784.48L797.114,783.823L797.048,782.969L796.983,782.181L796.847,781.525Z" style="fill:rgb(54,85,114);fill-rule:nonzero;"/>
            <path d="M841.315,783.101L841.183,783.43L840.855,784.086L840.526,784.546L840.264,785.072L840.001,785.663L839.739,786.189L839.082,787.24L838.754,787.7L838.425,788.226L838.163,788.752L837.835,789.277L837.441,789.737L837.046,790.263L836.652,790.722L835.93,791.642L835.536,792.101L835.142,792.495L833.302,794.072L832.776,794.4L832.185,794.729L831.463,795.057L830.674,795.386L830.083,795.583L829.491,795.715L828.835,795.715L828.046,795.649L827.258,795.452L826.666,795.255L826.207,794.927L825.747,794.533L825.287,793.876L824.828,793.154L824.631,792.563L824.433,791.774L824.368,790.92L824.368,790.264L824.433,789.41L824.499,788.621L824.302,788.49L823.973,788.949L823.316,790L822.659,790.919L822.265,791.379L821.936,791.839L821.542,792.298L821.213,792.758L820.754,793.152L820.359,793.546L819.9,793.941L819.44,794.269L818.914,794.597L818.192,795.057L817.206,795.517L816.155,795.845L815.301,796.042L814.119,796.173L813.462,796.108L812.673,795.976L811.885,795.779L811.294,795.582L810.768,795.385L810.309,795.056L809.39,794.267L809.061,793.808L808.733,793.283L808.339,792.561L807.944,791.575L807.747,790.721L807.682,790.064L807.55,789.211L807.485,788.16L807.485,787.306L807.55,786.649L807.615,785.795L807.747,785.007L807.944,784.35L808.142,783.561L808.339,782.707L808.536,782.116L808.798,781.59L808.995,780.999L810.571,777.846L810.899,777.32L811.228,776.86L811.556,776.334L812.213,775.415L812.607,774.955L813.461,773.97L813.723,773.707L814.183,773.182L815.102,772.394L815.694,771.802L816.416,771.276L817.335,770.554L817.861,770.226L818.321,769.897L818.912,769.635L819.701,769.306L820.423,768.912L821.079,768.584L821.868,768.321L822.656,768.124L823.313,767.927L824.956,767.795L825.547,767.73L826.335,767.73L827.649,767.795L829.16,767.927L830.605,768.19L831.196,768.321L831.918,768.519L834.545,769.701L835.005,770.095L835.465,770.424L835.924,770.819L836.318,771.278L836.45,772L836.188,772.92L835.466,773.708L834.743,774.168L834.218,774.233L833.692,774.036L833.166,773.642L832.575,773.314L832.049,772.985L831.589,772.788L831.063,772.525L830.472,772.263L829.946,772.131L828.83,771.869L828.173,771.672L827.516,771.54L826.203,771.54L825.743,771.605L825.086,771.671L824.232,771.868L822.59,772.459L821.933,772.787L821.276,773.181L820.817,773.509L820.291,773.838L819.831,774.166L819.372,774.56L818.846,775.02L818.583,775.282L818.123,775.808L817.729,776.268L817.4,776.727L816.612,777.647L816.284,778.106L815.955,778.632L815.167,780.208L814.839,780.734L814.445,781.916L814.182,782.507L813.919,783.033L813.525,784.806L813.328,785.463L813.131,787.236L813.131,789.076L813.196,789.733L813.394,790.324L813.656,790.849L813.985,791.375L814.379,791.769L814.97,792.032L815.759,792.163L816.613,792.098L817.204,791.901L818.255,791.375L819.174,790.587L819.569,790.192L820.028,789.798L820.423,789.338L820.752,788.879L821.146,788.419L821.475,787.959L822.197,786.974L822.525,786.514L823.51,784.938L823.905,784.216L824.364,783.362L824.627,782.968L825.415,781.26L825.678,780.669L825.809,780.209L826.072,779.618L826.269,779.093L826.466,778.501L826.729,777.779L827.123,776.466L827.385,775.744L827.582,775.087L827.977,774.496L828.633,774.167L829.225,774.035L829.816,774.1L830.408,774.232L831.459,774.758L831.985,775.086L832.247,775.48L832.313,776.072L832.115,776.597L831.984,777.188L831.786,777.779L831.524,778.961L831.327,779.552L831.195,780.078L830.801,781.26L830.669,781.917L830.604,782.311L830.407,783.1L830.275,783.691L830.012,784.807L829.815,785.596L829.683,786.253L829.552,786.975L829.355,787.96L829.158,789.077L829.092,790.062L829.158,790.916L829.486,791.442L830.143,791.771L831.129,791.837L831.917,791.574L832.509,791.246L833.428,790.59L833.887,790.13L834.676,789.276L835.465,788.357L836.121,787.438L836.45,786.912L836.844,786.387L836.976,785.992L838.027,784.416L838.29,783.89L838.619,783.364L839.932,780.737L840.523,780.408L841.312,780.54L841.838,781.197L841.903,781.854L841.641,782.445L841.315,783.101Z" style="fill:rgb(54,85,114);fill-rule:nonzero;"/>
            <path d="M854.976,781.328L854.976,782.05L854.779,782.641L854.254,783.692L853.662,784.678L853.333,785.269L853.071,785.795L852.677,786.387L852.48,786.781L852.152,787.372L851.823,787.897L851.495,788.357L851.101,788.883L850.773,789.342L850.116,790.393L848.933,791.773L848.145,792.627L847.685,793.087L847.291,793.546L846.831,793.941L845.386,795.057L844.926,795.386L844.335,795.648L843.744,795.846L843.218,795.977L842.035,796.24L840.919,796.24L840.196,796.174L839.671,795.977L839.08,795.78L838.554,795.451L838.094,795.057L837.766,794.597L837.437,794.072L837.174,793.481L837.042,792.955L836.911,792.364L836.845,791.772L836.845,791.181L836.977,789.998L837.109,789.407L837.306,788.815L837.568,787.633L837.766,787.108L837.897,786.516L838.094,785.925L838.291,785.399L838.883,783.626L838.948,783.1L839.08,782.508L839.277,781.917L839.409,781.326L839.541,780.8L839.935,779.617L840.132,778.828L840.329,777.975L840.723,776.793L840.855,776.201L840.987,775.742L841.119,775.15L841.381,774.494L841.578,773.968L841.973,772.194L842.17,771.603L842.367,770.815L842.629,769.961L842.826,769.369L843.089,768.844L843.483,768.516L844.075,768.253L844.6,768.188L845.257,768.253L846.44,768.385L847.491,768.779L847.82,769.239L847.82,769.83L847.688,770.421L847.491,771.21L847.294,772.064L846.9,773.246L846.768,773.772L846.636,774.363L846.439,775.02L846.242,775.808L845.585,777.778L845.453,778.37L845.191,779.224L844.731,780.603L844.599,781.195L844.468,781.721L844.336,782.312L843.876,783.429L843.745,784.02L843.285,785.662L842.891,786.845L842.759,787.437L842.562,788.29L842.365,789.341L842.233,790.458L842.365,791.443L842.89,792.165L843.612,792.363L844.203,792.297L844.795,792.035L845.254,791.707L845.78,791.313L847.948,789.145L848.342,788.686L848.67,788.226L849.064,787.7L849.721,786.649L850.115,786.189L850.378,785.795L850.706,785.269L851.101,784.678L851.363,784.086L851.888,782.97L852.677,781.394L853.005,780.868L853.597,780.539L854.451,780.671L854.976,781.328ZM844.4,761.162L844.729,760.636L845.254,760.177L845.78,759.849L846.437,759.652L847.028,759.52L847.685,759.52L848.277,759.652L848.802,759.981L849.262,760.375L849.722,760.835L850.05,761.361L850.247,761.952L850.312,762.543L850.312,763.2L850.115,763.791L849.786,764.317L849.392,764.842L848.932,765.237L848.407,765.631L847.816,765.893L847.159,766.025L846.568,765.96L845.911,765.828L844.86,765.171L844.466,764.712L844.138,764.187L844.006,763.595L843.941,763.004L844.006,762.413L844.138,761.756L844.4,761.162Z" style="fill:rgb(54,85,114);fill-rule:nonzero;"/>
            <path d="M872.185,763.92L871.856,764.512L871.33,765.563L871.002,766.285L870.542,767.007L870.213,767.467L869.885,767.992L869.556,768.452L869.228,769.043L868.966,769.438L868.638,769.963L868.178,770.554L867.587,771.211L866.996,771.802L866.733,772.13L866.273,772.656L865.42,773.51L865.025,773.97L864.303,774.758L863.844,775.152L863.318,775.678L862.596,776.204L861.61,777.058L861.084,777.386L859.639,778.305L859.179,778.502L858.654,778.83L857.932,779.422L857.472,780.013L857.21,780.538L857.078,781.26L856.881,782.443L856.881,782.837L856.749,783.494L856.617,784.085L856.552,784.742L856.552,786.122L856.487,786.976L856.487,788.289L856.618,789.011L856.684,789.406L856.815,790.062L857.078,790.654L857.341,791.18L857.735,791.64L858.261,791.968L858.787,792.165L859.444,792.297L860.56,792.297L861.086,792.232L861.677,792.035L862.466,791.707L863.188,791.313L863.713,790.918L864.37,790.393L864.961,789.802L865.75,789.08L866.275,788.62L866.67,788.095L866.932,787.766L867.326,787.24L867.589,786.781L867.983,786.189L868.246,785.86L868.64,785.269L869.166,784.284L869.494,783.758L869.888,783.167L870.216,782.576L870.545,781.919L871.136,781.065L871.793,780.539L872.647,780.671L873.173,781.328L873.173,781.984L872.976,782.576L872.713,783.102L872.385,783.628L872.123,784.219L871.86,784.745L871.663,785.271L871.334,785.797L871.072,786.257L870.744,786.783L870.35,787.374L870.218,787.702L869.89,788.293L869.496,788.818L868.839,789.738L868.379,790.329L868.117,790.592L867.657,791.183L867.263,791.643L866.737,792.299L866.146,792.825L865.686,793.285L865.292,793.613L864.832,794.007L864.241,794.335L863.715,794.597L863.123,794.86L862.598,795.122L862.072,795.319L861.481,795.582L860.693,795.845L859.379,796.107L858.591,796.172L857.868,796.107L857.474,796.107L856.817,796.042L856.226,795.91L855.701,795.713L855.11,795.516L854.584,795.253L854.058,794.925L853.598,794.531L853.204,794.137L852.81,793.677L852.547,793.151L852.285,792.56L852.088,792.034L851.956,791.442L851.759,790.851L851.693,790.26L851.561,789.603L851.561,789.209L851.43,788.487L851.364,787.895L851.364,787.304L851.43,786.712L851.495,786.056L851.495,785.661L851.56,784.807L851.758,783.362L851.823,782.574L851.823,781.982L851.955,781.391L852.087,780.734L852.546,778.567L852.743,777.778L852.94,776.596L853.072,776.268L853.269,775.479L853.401,775.085L853.663,774.099L853.861,773.245L853.992,772.654L854.19,771.866L854.452,770.946L854.517,770.487L854.78,769.568L855.042,768.714L855.24,768.254L855.502,767.4L855.764,766.612L856.027,766.02L856.684,764.313L856.815,763.918L857.21,762.999L857.669,761.948L857.998,761.16L858.261,760.568L858.458,760.174L858.787,759.582L859.246,758.466L859.575,757.809L859.903,757.218L860.297,756.627L860.822,755.773L861.676,754.591L862.07,754.065L862.924,753.211L863.187,752.882L863.647,752.423L864.106,752.094L865.157,751.372L865.879,750.912L866.601,750.583L867.193,750.386L867.784,750.254L868.966,750.254L869.623,750.386L870.017,750.451L870.674,750.649L871.2,750.911L872.119,751.7L872.447,752.225L872.906,752.882L873.234,753.671L873.497,754.262L873.759,755.051L873.891,755.905L873.891,757.087L873.759,758.86L873.497,760.043L873.3,760.569L873.168,761.226L872.642,762.802L872.379,763.327L872.185,763.92ZM861.282,765.76L860.363,768.519L860.231,769.11L860.034,769.701L859.771,770.555L859.312,771.935L859.115,772.592L859.049,772.986L858.852,773.643L858.655,774.234L858.523,774.891L858.655,775.285L859.049,775.023L859.706,774.498L862.399,771.804L862.728,771.345L863.056,770.82L863.45,770.228L863.713,769.966L864.107,769.374L864.567,768.783L865.026,768.126L865.486,767.404L865.814,766.878L866.076,766.419L866.405,765.959L866.931,764.908L867.194,764.251L867.391,763.857L867.653,763.2L867.916,762.609L868.048,762.017L868.245,761.426L868.442,760.704L868.704,759.982L868.902,759.26L869.164,758.537L869.229,757.881L869.295,757.289L869.295,756.041L869.163,755.516L868.966,754.99L868.506,754.662L867.98,754.531L867.389,754.662L866.798,755.122L866.338,755.516L866.009,755.911L865.681,756.37L865.352,756.896L864.696,757.882L864.367,758.473L864.104,759.065L863.842,759.59L863.579,760.182L863.317,760.708L863.054,761.299L862.857,761.824L862.595,762.546L862.2,763.532L861.938,764.123L861.282,765.76Z" style="fill:rgb(54,85,114);fill-rule:nonzero;"/>
            <path d="M885.19,790.261L884.73,790.852L884.533,791.114L884.073,791.64L883.285,792.559L882.825,792.887L882.365,793.281L881.906,793.609L881.38,793.938L880.92,794.266L880.395,794.594L879.936,794.923L879.344,795.12L878.818,795.317L878.227,795.515L877.11,795.843L876.519,795.908L875.994,796.04L875.403,796.105L874.811,796.105L874.154,796.04L873.563,795.974L872.972,795.843L872.446,795.645L871.854,795.383L871.395,794.989L870.935,794.661L870.147,793.742L869.818,793.216L869.555,792.625L869.424,792.099L869.292,791.508L869.226,790.851L869.226,790.26L869.292,789.668L869.292,789.077L869.424,787.894L869.686,786.712L869.751,786.186L870.277,783.822L870.672,782.246L870.934,781.063L871.394,779.683L871.591,778.895L871.788,778.238L872.314,776.662L872.642,775.546L872.904,774.954L873.167,774.166L873.364,773.377L873.561,772.786L873.758,772.26L874.021,771.669L874.743,769.501L875.072,768.975L875.466,768.581L875.992,768.318L876.649,768.187L877.24,768.187L877.897,768.252L878.488,768.317L879.08,768.515L879.671,768.777L879.999,769.237L879.934,769.763L879.802,770.354L879.605,770.88L879.407,771.471L879.212,772L879.015,772.592L878.884,773.118L878.161,775.285L877.964,775.942L877.373,777.519L877.241,778.11L877.044,778.636L876.912,779.228L876.715,779.819L876.583,780.344L876.452,780.935L876.057,782.052L875.926,782.643L875.531,784.219L875.4,784.876L875.268,785.467L875.202,785.993L874.94,787.175L874.743,788.948L874.743,789.54L874.808,790.131L874.94,790.722L875.202,791.248L875.531,791.708L875.991,791.97L876.582,792.167L877.436,792.102L878.487,791.905L879.538,791.445L880.457,790.919L881.114,790.394L881.64,790L882.035,789.606L882.429,789.146L882.955,788.49L883.481,787.898L883.875,787.373L884.335,786.651L885.386,784.681L885.78,783.959L886.042,783.302L886.371,782.58L887.028,780.609L887.16,780.018L887.357,779.427L887.619,778.835L887.816,778.244L887.948,777.719L888.145,777.128L888.277,776.536L888.54,775.945L888.737,775.42L888.934,774.829L889.066,774.237L889.657,772.464L889.854,771.938L890.117,771.216L890.248,770.888L890.511,770.166L890.708,769.64L890.97,769.114L891.365,768.72L891.956,768.523L892.548,768.391L893.204,768.325L893.796,768.26L894.452,768.325L895.044,768.457L895.57,768.786L895.899,769.246L895.899,769.772L895.702,770.363L895.504,770.889L895.045,772.268L894.848,773.056L894.585,773.648L894.388,774.174L894.125,774.765L893.863,775.554L893.666,776.342L893.403,776.934L893.206,777.787L892.877,778.773L892.549,779.627L892.351,780.218L892.089,781.072L891.892,782.123L891.695,782.977L891.563,783.568L891.366,784.16L891.234,784.751L890.84,786.327L890.774,786.984L890.577,788.757L890.512,789.414L890.512,790.005L890.577,790.597L890.774,791.188L891.169,791.648L891.695,791.976L892.221,792.173L892.877,792.173L893.469,792.042L894.652,791.648L895.243,791.385L895.768,791.122L896.294,790.728L896.82,790.4L897.279,790.006L897.542,789.48L897.477,788.823L897.214,788.101L897.082,787.445L897.279,786.656L897.674,785.999L898.2,785.605L898.922,785.408L899.71,785.473L900.302,785.539L900.696,785.473L901.024,785.079L901.681,784.028L902.01,783.306L902.404,782.584L902.666,781.992L902.929,781.467L903.191,780.876L903.388,780.022L903.848,778.642L904.045,777.854L904.308,777L904.439,776.408L904.636,775.817L904.768,775.226L904.9,774.437L905.097,773.583L905.229,772.927L905.361,772.073L905.426,771.284L905.426,770.628L905.558,769.446L905.952,768.854L906.74,768.46L907.791,768.328L908.842,768.394L909.762,768.723L910.419,769.379L910.681,770.101L910.681,771.35L910.549,772.532L910.484,773.189L910.352,774.371L910.22,774.962L910.089,775.619L909.957,776.21L909.76,776.735L909.628,777.327L909.234,778.509L909.037,779.035L908.905,779.626L908.511,780.809L908.248,781.335L908.051,781.926L907.46,783.109L907.328,783.503L906.999,784.225L906.736,784.751L906.474,785.211L905.817,786.262L905.488,786.721L905.094,787.246L904.765,787.706L904.371,788.166L904.174,788.56L904.502,788.889L905.159,789.02L905.75,789.02L906.341,788.955L907.458,788.626L908.049,788.495L909.231,787.838L909.757,787.444L910.348,786.918L910.874,786.459L911.399,785.867L911.859,785.211L912.253,784.751L912.647,784.225L912.975,783.7L913.369,783.043L913.764,782.321L914.026,781.73L914.289,781.204L914.683,780.744L915.208,780.415L916.062,780.481L916.521,781.138L916.521,781.86L916.324,782.386L915.536,783.962L915.273,784.553L914.814,785.21L914.419,785.932L914.025,786.458L913.696,786.917L912.908,787.837L912.58,788.231L911.791,789.15L911.332,789.478L910.807,789.872L910.15,790.332L909.428,790.726L907.785,791.448L907.194,791.58L906.603,791.646L905.814,791.711L903.712,791.711L903.186,791.579L902.595,791.382L902.07,791.317L901.544,791.382L901.084,791.776L900.23,792.63L899.771,792.958L899.245,793.352L898.719,793.615L898.194,793.944L897.734,794.206L897.208,794.469L896.617,794.798L896.025,794.995L895.5,795.257L894.909,795.454L894.252,795.717L893.464,795.914L892.675,796.046L892.018,796.177L891.362,796.177L890.508,796.112L889.522,795.915L888.668,795.652L888.077,795.39L887.486,794.864L887.026,794.272L886.698,793.681L886.436,792.827L886.173,791.842L885.976,790.791L885.976,789.937L885.911,789.477L885.845,789.477L885.516,789.806L885.19,790.261Z" style="fill:rgb(54,85,114);fill-rule:nonzero;"/>
            <path d="M929.394,781.328L929.394,782.05L929.197,782.641L928.671,783.692L928.079,784.678L927.75,785.269L927.488,785.795L927.094,786.387L926.897,786.781L926.568,787.372L926.24,787.897L925.911,788.357L925.517,788.883L925.188,789.342L924.531,790.393L923.349,791.773L922.561,792.627L922.101,793.087L921.707,793.546L921.247,793.941L919.802,795.057L919.342,795.386L918.751,795.648L918.16,795.846L917.634,795.977L916.451,796.24L915.335,796.24L914.612,796.174L914.086,795.977L913.495,795.78L912.97,795.451L912.51,795.057L912.182,794.597L911.853,794.072L911.59,793.481L911.458,792.955L911.327,792.364L911.261,791.772L911.261,791.181L911.393,789.998L911.525,789.407L911.722,788.815L911.984,787.633L912.182,787.108L912.313,786.516L912.51,785.925L912.707,785.399L913.299,783.626L913.364,783.1L913.496,782.508L913.693,781.917L913.825,781.326L913.957,780.8L914.351,779.617L914.548,778.828L914.745,777.975L915.139,776.793L915.271,776.201L915.403,775.742L915.535,775.15L915.797,774.494L915.994,773.968L916.389,772.194L916.586,771.603L916.783,770.815L917.045,769.961L917.242,769.369L917.505,768.844L917.899,768.516L918.491,768.253L919.016,768.188L919.673,768.253L920.855,768.385L921.906,768.779L922.234,769.239L922.234,769.83L922.102,770.421L921.905,771.21L921.708,772.064L921.314,773.246L921.182,773.772L921.05,774.363L920.853,775.02L920.656,775.808L919.999,777.778L919.867,778.37L919.605,779.224L919.145,780.603L919.013,781.195L918.882,781.721L918.75,782.312L918.29,783.429L918.159,784.02L917.699,785.662L917.305,786.845L917.173,787.437L916.976,788.29L916.779,789.341L916.647,790.458L916.779,791.443L917.305,792.165L918.027,792.363L918.618,792.297L919.21,792.035L919.669,791.707L920.194,791.313L922.362,789.145L922.756,788.686L923.084,788.226L923.478,787.7L924.135,786.649L924.529,786.189L924.792,785.795L925.12,785.269L925.515,784.678L925.777,784.086L926.303,782.97L927.092,781.394L927.42,780.868L928.012,780.539L928.866,780.671L929.394,781.328ZM918.818,761.162L919.147,760.636L919.673,760.177L920.198,759.849L920.855,759.652L921.446,759.52L922.103,759.52L922.695,759.652L923.22,759.981L923.68,760.375L924.14,760.835L924.468,761.361L924.665,761.952L924.73,762.543L924.73,763.2L924.533,763.791L924.205,764.317L923.811,764.842L923.351,765.237L922.825,765.631L922.234,765.893L921.577,766.025L920.986,765.96L920.329,765.828L919.278,765.171L918.884,764.712L918.555,764.187L918.423,763.595L918.358,763.004L918.423,762.413L918.555,761.756L918.818,761.162Z" style="fill:rgb(54,85,114);fill-rule:nonzero;"/>
            <path d="M941.545,772.263L941.019,772.525L940.559,772.788L940.1,773.117L939.574,773.511L939.115,773.905L938.064,774.627L937.604,774.956L937.145,775.35L936.685,775.81L935.897,776.729L935.437,777.189L934.648,778.108L933.992,779.159L933.597,779.684L932.809,781.26L932.087,783.428L931.89,784.282L931.627,785.267L931.365,786.121L930.97,787.894L930.708,788.748L930.445,789.734L930.248,790.588L930.051,791.179L929.854,792.033L929.722,792.755L929.525,793.412L929.46,794.003L929.328,794.528L929.131,795.054L928.737,795.383L928.145,795.58L927.554,795.645L926.7,795.711L925.714,795.645L924.86,795.514L924.335,795.251L923.94,794.66L923.875,793.938L924.007,793.281L924.204,792.427L924.401,791.639L924.533,791.047L924.73,790.456L924.861,789.864L925.059,789.338L925.256,788.747L925.388,788.156L925.519,787.63L925.651,787.038L925.848,786.447L926.045,785.921L926.308,784.738L926.44,784.212L926.505,783.621L926.702,783.029L926.834,782.438L927.031,781.847L927.228,781.058L927.491,780.204L927.819,779.022L927.951,778.496L928.083,777.905L928.28,777.314L928.412,776.722L928.609,776.197L928.741,775.606L928.938,775.015L929.135,774.161L929.332,773.372L929.464,772.781L929.858,771.598L929.99,771.073L930.187,770.482L930.449,769.299L930.909,768.642L931.763,768.183L932.814,768.051L933.865,768.183L934.851,768.512L935.507,769.168L935.639,769.957L935.507,770.614L935.375,771.073L935.178,771.665L935.047,772.256L934.85,772.782L934.718,773.373L934.521,773.965L934.389,774.556L934.323,774.95L934.389,775.016L934.651,774.688L935.046,774.228L935.374,773.769L936.163,772.849L936.623,772.455L937.476,771.733L937.936,771.339L938.79,770.485L940.104,769.434L940.629,769.105L941.155,768.842L941.68,768.514L942.206,768.316L942.797,768.119L943.651,767.922L944.439,767.79L945.95,767.79L947.001,767.922L947.723,768.054L948.314,768.316L948.906,768.644L949.365,769.104L949.693,769.564L950.022,770.089L950.285,770.615L950.482,771.206L950.679,771.994L950.811,772.783L950.811,774.031L950.745,774.622L950.745,775.214L950.68,775.74L950.548,776.331L950.416,776.988L950.285,777.382L950.087,778.039L949.89,778.893L949.628,779.878L949.365,780.732L949.168,781.324L948.971,782.178L948.709,783.294L948.446,784.345L948.184,785.264L948.052,785.855L947.92,786.315L947.788,786.906L947.591,787.498L947.46,788.024L947.065,789.797L947,790.388L947,791.57L947.262,792.096L947.722,792.425L948.313,792.49L948.905,792.293L949.496,792.031L950.022,791.703L950.482,791.374L951.007,790.98L951.861,790.126L952.189,789.666L952.584,789.14L952.912,788.681L953.371,788.155L953.7,787.695L954.094,787.104L954.686,786.118L955.08,785.527L955.277,785.199L955.671,784.607L956,784.016L956.526,782.965L956.789,782.374L956.986,781.848L957.183,781.256L957.511,780.731L958.102,780.337L958.956,780.534L959.482,781.191L959.482,781.848L959.285,782.439L959.023,782.965L958.76,783.556L958.497,784.082L958.169,784.608L957.906,785.134L957.512,785.726L957.315,786.12L956.658,787.303L956.526,787.697L956.197,788.288L955.541,789.339L955.146,789.931L954.884,790.26L954.49,790.785L954.03,791.376L953.636,791.836L952.914,792.624L952.519,793.084L951.6,793.872L951.206,794.266L950.68,794.661L950.154,794.989L949.103,795.515L948.577,795.712L947.985,795.909L947.394,796.041L946.869,796.106L946.212,796.171L945.621,796.171L945.03,796.106L944.505,795.974L943.913,795.777L943.387,795.58L942.861,795.251L942.467,794.923L942.073,794.464L941.81,793.872L941.613,793.347L941.481,792.756L941.35,792.23L941.35,790.785L941.481,789.931L941.547,789.274L941.744,788.42L942.335,786.253L942.532,785.136L942.795,784.02L943.057,782.969L943.32,782.115L943.517,781.524L943.779,780.67L944.042,779.619L944.239,778.568L944.502,777.714L944.764,776.531L944.829,775.94L945.092,774.692L945.157,774.1L945.026,773.444L944.631,772.787L944.04,772.195L943.45,772L942.858,771.935L942.268,772L941.545,772.263Z" style="fill:rgb(54,85,114);fill-rule:nonzero;"/>
            <path d="M960.462,774.365L960.922,773.905L961.71,772.986L963.09,771.804L963.55,771.475L964.075,771.081L964.534,770.752L965.059,770.49L965.651,770.227L966.636,769.701L967.228,769.372L968.41,768.978L968.935,768.781L970.117,768.519L970.709,768.453L971.365,768.388L972.548,768.256L974.059,768.256L974.913,768.388L975.635,768.52L976.094,768.585L976.489,768.388L976.751,767.928L976.883,767.337L977.277,766.154L977.409,765.628L977.606,765.037L978.066,763.92L978.263,763.264L978.394,762.869L978.657,762.213L978.789,761.687L979.183,760.505L979.38,759.979L980.037,758.009L980.365,757.22L980.759,756.037L980.956,755.512L981.219,754.856L981.35,754.461L981.876,753.279L982.074,752.754L982.665,751.637L982.927,751.111L983.519,750.652L984.241,750.389L984.898,750.389L985.489,750.454L986.146,750.586L986.54,750.718L987.197,750.915L987.656,751.243L987.853,751.769L987.722,752.295L987.59,752.886L987.328,753.478L987.065,754.004L986.868,754.53L986.671,755.121L986.342,755.91L986.079,756.698L985.817,757.42L985.028,759.522L984.766,760.311L984.438,761.099L984.241,761.69L984.044,762.216L983.584,763.595L983.256,764.384L983.059,765.041L982.337,767.208L982.205,767.799L982.008,768.325L981.811,768.917L981.614,769.443L981.417,770.034L981.22,770.56L981.088,771.151L980.956,771.677L980.824,772.268L980.627,772.859L980.43,773.385L980.233,773.977L980.101,774.568L979.97,775.094L979.838,775.685L979.641,776.277L979.443,777.131L979.181,777.985L979.049,778.379L978.852,779.101L978.72,779.692L978.589,780.481L978.457,781.335L978.063,783.108L978,783.692L977.869,784.284L977.737,785.137L977.605,785.926L977.54,786.517L977.408,787.109L977.342,787.7L977.342,788.291L977.408,788.948L977.473,789.802L977.67,790.591L977.868,791.182L978.262,791.576L978.788,791.773L979.379,791.839L979.904,791.707L980.495,791.51L981.021,791.182L982.203,790.131L982.663,789.671L983.32,788.752L983.976,787.701L984.896,786.388L985.225,785.862L985.487,785.337L985.815,784.745L986.472,783.3L986.8,782.708L987.063,782.249L987.326,781.657L987.654,780.935L988.377,780.409L989.165,780.541L989.625,781.198L989.625,782.052L989.296,782.84L988.968,783.497L988.574,784.219L988.179,785.073L987.917,785.467L987.128,787.043L986.734,787.635L985.88,789.014L985.224,790.065L984.895,790.525L984.5,791.051L984.172,791.511L983.777,791.905L983.318,792.299L982.858,792.825L982.595,793.088L982.136,793.614L981.676,794.008L981.15,794.336L980.691,794.598L980.165,794.861L978.457,795.452L977.866,795.584L977.34,795.584L976.749,795.649L976.158,795.584L975.566,795.452L975.04,795.19L974.514,794.862L974.12,794.533L973.661,794.073L973.004,793.154L972.741,792.629L972.544,792.038L972.412,791.512L972.215,789.739L972.215,788.491L972.083,788.425L971.755,788.885L971.426,789.411L970.834,790.462L970.506,790.921L970.111,791.381L969.389,792.3L968.995,792.695L967.615,793.877L967.024,794.337L966.367,794.863L965.775,795.257L965.25,795.52L964.593,795.717L963.082,796.046L962.425,796.177L961.834,796.243L961.309,796.177L960.718,796.112L960.126,795.98L959.6,795.849L959.009,795.586L958.549,795.323L958.023,794.929L957.432,794.338L956.841,793.812L956.512,793.287L956.249,792.761L956.052,792.169L955.658,791.118L955.461,790.527L955.395,789.936L955.33,789.147L955.33,788.293L955.264,787.702L955.264,787.111L955.33,786.454L955.395,785.665L955.527,784.811L955.659,784.22L955.856,783.563L955.921,783.169L956.118,782.512L956.315,781.921L956.907,780.345L957.104,779.754L957.63,778.703L958.024,777.981L958.352,777.258L958.746,776.602L959.009,776.274L959.403,775.748L960.06,774.829L960.462,774.365ZM973.862,772.066L972.614,772.131L972.022,772.131L971.431,772.263L970.774,772.395L970.38,772.526L969.723,772.789L969.132,772.986L968.54,773.248L968.014,773.576L967.555,773.905L967.095,774.299L966.635,774.759L965.716,775.548L965.322,775.942L964.928,776.401L964.139,777.387L963.811,777.847L963.482,778.438L962.694,779.883L962.366,780.409L962.169,780.935L961.972,781.527L961.775,782.053L961.512,782.644L961.118,784.22L960.921,784.811L960.789,785.665L960.724,786.454L960.658,787.111L960.79,787.964L960.922,789.015L961.054,789.869L961.251,790.461L961.579,790.92L961.974,791.315L962.433,791.709L963.025,791.971L963.813,792.103L964.602,792.038L965.259,791.775L965.653,791.578L966.244,791.25L966.704,790.921L967.492,790.133L967.952,789.608L968.346,789.148L968.806,788.689L969.134,788.229L969.463,787.703L969.857,787.112L970.316,786.323L970.776,785.732L971.038,785.206L971.301,784.614L971.498,784.088L971.761,783.497L972.089,782.708L972.417,781.986L972.68,781.395L972.877,780.869L973.796,778.11L974.059,777.256L974.584,775.154L974.781,774.3L974.978,773.644L975.11,772.922L974.913,772.33L974.453,772.068L973.862,772.068L973.862,772.066Z" style="fill:rgb(54,85,114);fill-rule:nonzero;"/>
            <g>
                <path d="M787.811,807.941L779.772,807.941C777.692,807.941 776.024,809.488 776.024,811.573L776.024,846.051C776.024,848.136 777.692,849.683 779.772,849.683L787.811,849.683C798.056,849.683 804.306,843.908 804.306,833.484L804.306,824.136C804.305,813.536 797.993,807.941 787.811,807.941ZM797.993,833.604C797.993,840.038 794.424,843.728 787.932,843.728L782.274,843.728L782.274,813.895L787.932,813.895C794.303,813.895 797.993,817.468 797.993,824.019L797.993,833.604Z" style="fill:rgb(39,189,255);fill-rule:nonzero;"/>
                <path d="M815.161,818.899C813.372,818.899 812.063,820.15 812.063,821.934L812.063,847.243C812.063,849.027 813.372,850.278 815.161,850.278C816.945,850.278 818.196,849.027 818.196,847.243L818.196,821.934C818.196,820.15 816.945,818.899 815.161,818.899Z" style="fill:rgb(39,189,255);fill-rule:nonzero;"/>
                <path d="M815.161,807.345C813.197,807.345 811.588,808.95 811.588,810.918C811.588,812.945 813.198,814.55 815.161,814.55C817.125,814.55 818.734,812.945 818.734,810.918C818.735,808.95 817.125,807.345 815.161,807.345Z" style="fill:rgb(39,189,255);fill-rule:nonzero;"/>
                <path d="M847.501,820.504C844.466,819.433 841.309,818.899 838.032,818.899C830.653,818.899 826.008,822.826 826.008,830.749L826.008,838.371C826.008,845.993 830.115,850.279 837.678,850.279C840.059,850.279 842.26,849.62 844.287,848.432L844.287,851.409C844.287,854.745 842.498,857.601 838.212,857.601C835.71,857.601 833.868,857.126 831.725,856.176C831.308,855.997 830.77,855.817 830.295,855.817C828.569,855.817 827.556,857.01 827.556,858.498C827.556,859.506 828.031,860.403 828.986,860.937C831.604,862.246 834.761,862.964 838.213,862.964C845.418,862.964 850.063,858.081 850.063,851.172L850.063,823.962C850.061,822.351 849.11,821.042 847.501,820.504ZM843.927,842.598C842.259,843.907 840.116,844.683 838.031,844.683C834.341,844.683 832.14,842.831 832.14,838.787L832.14,830.389C832.14,826.753 834.162,824.551 838.031,824.551C840.058,824.551 842.084,824.793 843.927,825.327L843.927,842.598Z" style="fill:rgb(39,189,255);fill-rule:nonzero;"/>
                <path d="M861.872,818.899C860.083,818.899 858.774,820.15 858.774,821.934L858.774,847.243C858.774,849.027 860.083,850.278 861.872,850.278C863.656,850.278 864.907,849.027 864.907,847.243L864.907,821.934C864.907,820.15 863.656,818.899 861.872,818.899Z" style="fill:rgb(39,189,255);fill-rule:nonzero;"/>
                <path d="M861.872,807.345C859.908,807.345 858.299,808.95 858.299,810.918C858.299,812.945 859.909,814.55 861.872,814.55C863.836,814.55 865.445,812.945 865.445,810.918C865.445,808.95 863.835,807.345 861.872,807.345Z" style="fill:rgb(39,189,255);fill-rule:nonzero;"/>
                <path d="M885.46,825.328C887.424,825.328 888.495,824.077 888.495,822.409C888.495,820.741 887.423,819.49 885.46,819.49L879.622,819.49L879.622,810.385C879.622,808.596 878.313,807.345 876.587,807.345C874.798,807.345 873.489,808.596 873.489,810.385L873.489,840.872C873.489,847.059 877.421,850.278 882.483,850.278C883.734,850.278 884.742,850.157 885.935,849.919C887.423,849.618 888.495,848.61 888.495,847.058C888.495,845.216 887.244,844.265 885.639,844.265C884.684,844.265 884.15,844.561 882.662,844.561C880.757,844.561 879.622,843.431 879.622,841.046L879.622,825.327L885.46,825.327L885.46,825.328Z" style="fill:rgb(39,189,255);fill-rule:nonzero;"/>
                <path d="M904.645,818.899C900.475,818.899 897.139,820.208 895.472,821.217C894.58,821.755 894.047,822.652 894.047,823.661C894.047,825.329 895.472,826.522 896.903,826.522C897.858,826.522 898.629,826.105 899.642,825.63C901.189,824.854 902.857,824.554 904.883,824.554C908.393,824.554 910.119,826.401 910.119,828.724L910.119,831.105L904.703,831.105C897.915,831.105 892.257,833.728 892.257,840.632C892.257,847.478 897.198,850.281 904.703,850.281C908.039,850.281 911.491,849.685 913.872,848.851C915.482,848.313 916.253,846.887 916.253,845.52L916.253,828.666C916.253,822.113 911.016,818.899 904.645,818.899ZM910.119,843.966C908.335,844.441 906.551,844.684 904.645,844.684C900.834,844.684 898.39,843.908 898.39,840.752C898.39,837.712 900.834,836.762 904.523,836.762L910.118,836.762L910.118,843.966L910.119,843.966Z" style="fill:rgb(39,189,255);fill-rule:nonzero;"/>
                <path d="M927.526,807.345C925.737,807.345 924.428,808.596 924.428,810.385L924.428,847.243C924.428,849.027 925.737,850.278 927.526,850.278C929.252,850.278 930.561,849.027 930.561,847.243L930.561,810.385C930.561,808.596 929.252,807.345 927.526,807.345Z" style="fill:rgb(39,189,255);fill-rule:nonzero;"/>
            </g>
        </g>
        <g>
            <path d="M713.694,774.127L717.704,784.568C718.944,787.795 716.911,791.328 713.505,791.919C703.865,793.592 694.802,796.924 689.643,800.63C683.64,804.943 681.11,810.024 684.202,814.328C694.201,828.243 727.684,793.972 748.466,815.413L748.987,719.47C748.995,717.946 746.921,717.488 746.281,718.871C733.637,746.192 727.017,757.15 713.605,774.13C713.635,774.13 713.665,774.128 713.694,774.127Z" style="fill:rgb(39,189,255);fill-rule:nonzero;"/>
            <path d="M761.085,864.539C760.714,864.454 760.605,864.344 760.242,864.204C760.328,864.246 760.415,864.288 760.5,864.33C761.168,864.662 756.326,864.221 756.345,864.187L613.428,864.187C611.741,864.187 610.373,865.555 610.373,867.242L610.373,867.304C610.373,868.991 611.741,870.359 613.428,870.359L761.085,870.359L761.085,864.539Z" style="fill:rgb(54,85,114);fill-rule:nonzero;"/>
            <path d="M761.085,868.9L761.085,715.697C761.085,714.01 759.717,712.642 758.03,712.642L757.734,712.642C756.047,712.642 754.679,714.01 754.679,715.697L754.679,869.344L761.085,868.9Z" style="fill:rgb(54,85,114);fill-rule:nonzero;"/>
            <path d="M731.118,835.055C730.868,834.427 730.533,833.81 730.102,833.21C719.36,818.26 686.465,857.867 666.284,829.78C664.7,827.576 663.498,825.288 662.661,822.947C644.695,836.938 628.222,847.554 618.745,853.352C616.442,854.761 617.444,858.309 620.144,858.309L699.272,858.309L699.272,858.29C709.884,857.729 717.257,853.945 723.776,849.261C726.066,847.616 727.878,845.912 729.188,844.199C729.187,844.199 733.062,839.233 731.118,835.055Z" style="fill:rgb(54,85,114);fill-rule:nonzero;"/>
        </g>
    </g>
</svg>
